<svg width="38" height="38" viewBox="0 0 38 38" fill="none" xmlns="http://www.w3.org/2000/svg">
<circle cx="19" cy="19" r="19" fill="#EEF4FF"/>
<path d="M26 24H28C28.6 24 29 23.6 29 23V20C29 19.1 28.3 18.3 27.5 18.1C25.7 17.6 23 17 23 17C23 17 21.7 15.6 20.8 14.7C20.3 14.3 19.7 14 19 14H12C11.4 14 10.9 14.4 10.6 14.9L9.2 17.8C9.06758 18.1862 9 18.5917 9 19V23C9 23.6 9.4 24 10 24H12" stroke="#2563EB" stroke-width="2" stroke-linecap="round" stroke-linejoin="round"/>
<path d="M14 26C15.1046 26 16 25.1046 16 24C16 22.8954 15.1046 22 14 22C12.8954 22 12 22.8954 12 24C12 25.1046 12.8954 26 14 26Z" stroke="#2563EB" stroke-width="2" stroke-linecap="round" stroke-linejoin="round"/>
<path d="M16 24H22" stroke="#2563EB" stroke-width="2" stroke-linecap="round" stroke-linejoin="round"/>
<path d="M24 26C25.1046 26 26 25.1046 26 24C26 22.8954 25.1046 22 24 22C22.8954 22 22 22.8954 22 24C22 25.1046 22.8954 26 24 26Z" stroke="#2563EB" stroke-width="2" stroke-linecap="round" stroke-linejoin="round"/>
</svg>
